<svg xmlns="http://www.w3.org/2000/svg" xmlns:xlink="http://www.w3.org/1999/xlink" width="500" zoomAndPan="magnify" viewBox="0 0 375 262.499992" height="350" preserveAspectRatio="xMidYMid meet" version="1.0"><defs><g/><clipPath id="2a219b2827"><path d="M 92.835938 57.921875 L 110.488281 57.921875 L 110.488281 160.746094 L 92.835938 160.746094 Z M 92.835938 57.921875 " clip-rule="nonzero"/></clipPath><clipPath id="253afeb353"><path d="M 101.664062 57.921875 C 104.003906 57.921875 106.25 58.851562 107.902344 60.507812 C 109.558594 62.160156 110.488281 64.40625 110.488281 66.746094 L 110.488281 151.894531 C 110.488281 154.234375 109.558594 156.480469 107.902344 158.136719 C 106.25 159.789062 104.003906 160.722656 101.664062 160.722656 C 99.320312 160.722656 97.074219 159.789062 95.421875 158.136719 C 93.765625 156.480469 92.835938 154.234375 92.835938 151.894531 L 92.835938 66.746094 C 92.835938 64.40625 93.765625 62.160156 95.421875 60.507812 C 97.074219 58.851562 99.320312 57.921875 101.664062 57.921875 Z M 101.664062 57.921875 " clip-rule="nonzero"/></clipPath><clipPath id="a8d6251f6f"><path d="M 71.671875 67.660156 L 89.328125 67.660156 L 89.328125 150.140625 L 71.671875 150.140625 Z M 71.671875 67.660156 " clip-rule="nonzero"/></clipPath><clipPath id="b7c0da2daa"><path d="M 80.5 67.660156 C 82.84375 67.660156 85.085938 68.589844 86.742188 70.246094 C 88.398438 71.902344 89.328125 74.148438 89.328125 76.488281 L 89.328125 141.277344 C 89.328125 143.617188 88.398438 145.863281 86.742188 147.519531 C 85.085938 149.175781 82.84375 150.105469 80.5 150.105469 C 78.160156 150.105469 75.914062 149.175781 74.257812 147.519531 C 72.601562 145.863281 71.671875 143.617188 71.671875 141.277344 L 71.671875 76.488281 C 71.671875 74.148438 72.601562 71.902344 74.257812 70.246094 C 75.914062 68.589844 78.160156 67.660156 80.5 67.660156 Z M 80.5 67.660156 " clip-rule="nonzero"/></clipPath><clipPath id="7c52f2e604"><path d="M 50.511719 81.816406 L 68.167969 81.816406 L 68.167969 135.125 L 50.511719 135.125 Z M 50.511719 81.816406 " clip-rule="nonzero"/></clipPath><clipPath id="74712f951b"><path d="M 59.339844 81.816406 C 61.679688 81.816406 63.925781 82.746094 65.582031 84.398438 C 67.238281 86.054688 68.167969 88.300781 68.167969 90.640625 L 68.167969 126.246094 C 68.167969 128.589844 67.238281 130.832031 65.582031 132.488281 C 63.925781 134.144531 61.679688 135.074219 59.339844 135.074219 C 56.996094 135.074219 54.753906 134.144531 53.097656 132.488281 C 51.441406 130.832031 50.511719 128.589844 50.511719 126.246094 L 50.511719 90.640625 C 50.511719 88.300781 51.441406 86.054688 53.097656 84.398438 C 54.753906 82.746094 56.996094 81.816406 59.339844 81.816406 Z M 59.339844 81.816406 " clip-rule="nonzero"/></clipPath><clipPath id="10cc52f735"><path d="M 264.507812 57.886719 L 282.164062 57.886719 L 282.164062 160.710938 L 264.507812 160.710938 Z M 264.507812 57.886719 " clip-rule="nonzero"/></clipPath><clipPath id="bd55e20429"><path d="M 273.335938 160.710938 C 270.996094 160.710938 268.75 159.78125 267.09375 158.125 C 265.4375 156.46875 264.507812 154.222656 264.507812 151.882812 L 264.507812 66.738281 C 264.507812 64.394531 265.4375 62.152344 267.09375 60.496094 C 268.75 58.839844 270.996094 57.910156 273.335938 57.910156 C 275.675781 57.910156 277.921875 58.839844 279.578125 60.496094 C 281.234375 62.152344 282.164062 64.394531 282.164062 66.738281 L 282.164062 151.882812 C 282.164062 154.222656 281.234375 156.46875 279.578125 158.125 C 277.921875 159.78125 275.675781 160.710938 273.335938 160.710938 Z M 273.335938 160.710938 " clip-rule="nonzero"/></clipPath><clipPath id="8a29735761"><path d="M 285.671875 68.496094 L 303.324219 68.496094 L 303.324219 150.976562 L 285.671875 150.976562 Z M 285.671875 68.496094 " clip-rule="nonzero"/></clipPath><clipPath id="a42e97314c"><path d="M 294.496094 150.976562 C 292.15625 150.976562 289.910156 150.046875 288.257812 148.390625 C 286.601562 146.734375 285.671875 144.488281 285.671875 142.148438 L 285.671875 77.359375 C 285.671875 75.019531 286.601562 72.773438 288.257812 71.117188 C 289.910156 69.460938 292.15625 68.53125 294.496094 68.53125 C 296.839844 68.53125 299.085938 69.460938 300.738281 71.117188 C 302.394531 72.773438 303.324219 75.019531 303.324219 77.359375 L 303.324219 142.148438 C 303.324219 144.488281 302.394531 146.734375 300.738281 148.390625 C 299.085938 150.046875 296.839844 150.976562 294.496094 150.976562 Z M 294.496094 150.976562 " clip-rule="nonzero"/></clipPath><clipPath id="8d06c165cf"><path d="M 306.832031 83.511719 L 324.488281 83.511719 L 324.488281 136.820312 L 306.832031 136.820312 Z M 306.832031 83.511719 " clip-rule="nonzero"/></clipPath><clipPath id="e9bb62fefa"><path d="M 315.660156 136.820312 C 313.320312 136.820312 311.074219 135.890625 309.417969 134.234375 C 307.761719 132.582031 306.832031 130.335938 306.832031 127.996094 L 306.832031 92.390625 C 306.832031 90.046875 307.761719 87.800781 309.417969 86.148438 C 311.074219 84.492188 313.320312 83.5625 315.660156 83.5625 C 318 83.5625 320.246094 84.492188 321.902344 86.148438 C 323.558594 87.800781 324.488281 90.046875 324.488281 92.390625 L 324.488281 127.996094 C 324.488281 130.335938 323.558594 132.582031 321.902344 134.234375 C 320.246094 135.890625 318 136.820312 315.660156 136.820312 Z M 315.660156 136.820312 " clip-rule="nonzero"/></clipPath></defs><g clip-path="url(#2a219b2827)"><g clip-path="url(#253afeb353)"><path fill="#ffffff" d="M 92.835938 57.921875 L 110.488281 57.921875 L 110.488281 160.746094 L 92.835938 160.746094 Z M 92.835938 57.921875 " fill-opacity="1" fill-rule="nonzero"/></g></g><g clip-path="url(#a8d6251f6f)"><g clip-path="url(#b7c0da2daa)"><path fill="#ffffff" d="M 71.671875 67.660156 L 89.328125 67.660156 L 89.328125 150.070312 L 71.671875 150.070312 Z M 71.671875 67.660156 " fill-opacity="1" fill-rule="nonzero"/></g></g><g clip-path="url(#7c52f2e604)"><g clip-path="url(#74712f951b)"><path fill="#ffffff" d="M 50.511719 81.816406 L 68.167969 81.816406 L 68.167969 135.054688 L 50.511719 135.054688 Z M 50.511719 81.816406 " fill-opacity="1" fill-rule="nonzero"/></g></g><path stroke-linecap="round" transform="matrix(0.991942, 0, 0, 0.991942, 121.22141, 109.007146)" fill="none" stroke-linejoin="miter" d="M 2.99806 3.001413 L 25.003498 3.001413 " stroke="#ffffff" stroke-width="6" stroke-opacity="1" stroke-miterlimit="4"/><path stroke-linecap="round" transform="matrix(0.427536, -0.895077, 0.895077, 0.427536, 143.529541, 110.694684)" fill="none" stroke-linejoin="miter" d="M 2.998615 2.999225 L 35.137176 3.001236 " stroke="#ffffff" stroke-width="6" stroke-opacity="1" stroke-miterlimit="4"/><path stroke-linecap="round" transform="matrix(-0.269503, -0.95463, 0.95463, -0.269503, 176.517534, 138.383249)" fill="none" stroke-linejoin="miter" d="M 2.999557 3.001244 L 59.570136 3.001104 " stroke="#ffffff" stroke-width="6" stroke-opacity="1" stroke-miterlimit="4"/><path stroke-linecap="round" transform="matrix(0.199609, -0.971651, 0.971651, 0.199609, 176.469783, 136.977537)" fill="none" stroke-linejoin="miter" d="M 3.001403 3.000547 L 89.660992 2.999363 " stroke="#ffffff" stroke-width="6" stroke-opacity="1" stroke-miterlimit="4"/><path stroke-linecap="round" transform="matrix(-0.138765, -0.982188, 0.982188, -0.138765, 212.386133, 171.524027)" fill="none" stroke-linejoin="miter" d="M 3.000788 3.001706 L 122.811073 2.998216 " stroke="#ffffff" stroke-width="6" stroke-opacity="1" stroke-miterlimit="4"/><path stroke-linecap="round" transform="matrix(0.193715, -0.972843, 0.972843, 0.193715, 212.417904, 170.52835)" fill="none" stroke-linejoin="miter" d="M 2.999641 3.000471 L 60.229524 3.00009 " stroke="#ffffff" stroke-width="6" stroke-opacity="1" stroke-miterlimit="4"/><path stroke-linecap="round" transform="matrix(0.991942, 0, 0, 0.991942, 224.613448, 109.007146)" fill="none" stroke-linejoin="miter" d="M 3.000574 3.001413 L 26.403994 3.001413 " stroke="#ffffff" stroke-width="6" stroke-opacity="1" stroke-miterlimit="4"/><g clip-path="url(#10cc52f735)"><g clip-path="url(#bd55e20429)"><path fill="#ffffff" d="M 282.164062 160.710938 L 264.507812 160.710938 L 264.507812 57.886719 L 282.164062 57.886719 Z M 282.164062 160.710938 " fill-opacity="1" fill-rule="nonzero"/></g></g><g clip-path="url(#8a29735761)"><g clip-path="url(#a42e97314c)"><path fill="#ffffff" d="M 303.324219 150.976562 L 285.671875 150.976562 L 285.671875 68.566406 L 303.324219 68.566406 Z M 303.324219 150.976562 " fill-opacity="1" fill-rule="nonzero"/></g></g><g clip-path="url(#8d06c165cf)"><g clip-path="url(#e9bb62fefa)"><path fill="#ffffff" d="M 324.488281 136.820312 L 306.832031 136.820312 L 306.832031 83.582031 L 324.488281 83.582031 Z M 324.488281 136.820312 " fill-opacity="1" fill-rule="nonzero"/></g></g><g fill="#f97316" fill-opacity="1"><g transform="translate(67.252031, 217.993827)"><g><path d="M -0.28125 0 L 9.234375 -25.515625 L 14.921875 -25.515625 L 24.40625 0 L 17 0 L 15.453125 -5 L 8.65625 -5 L 7.15625 0 Z M 12.078125 -18.21875 L 9.703125 -9.671875 L 14.34375 -9.671875 Z M 12.078125 -18.21875 "/></g></g></g><g fill="#f97316" fill-opacity="1"><g transform="translate(92.226927, 217.993827)"><g><path d="M 2.1875 0 L 2.1875 -25.515625 L 12 -25.515625 C 14.113281 -25.515625 15.972656 -25.175781 17.578125 -24.5 C 19.179688 -23.832031 20.519531 -22.921875 21.59375 -21.765625 C 22.675781 -20.617188 23.492188 -19.273438 24.046875 -17.734375 C 24.597656 -16.191406 24.875 -14.546875 24.875 -12.796875 C 24.875 -10.859375 24.566406 -9.101562 23.953125 -7.53125 C 23.335938 -5.957031 22.46875 -4.613281 21.34375 -3.5 C 20.21875 -2.382812 18.863281 -1.519531 17.28125 -0.90625 C 15.707031 -0.300781 13.945312 0 12 0 Z M 17.75 -12.796875 C 17.75 -13.773438 17.617188 -14.671875 17.359375 -15.484375 C 17.097656 -16.304688 16.71875 -17.003906 16.21875 -17.578125 C 15.726562 -18.148438 15.125 -18.597656 14.40625 -18.921875 C 13.6875 -19.242188 12.882812 -19.40625 12 -19.40625 L 9.203125 -19.40625 L 9.203125 -6.109375 L 12 -6.109375 C 12.914062 -6.109375 13.734375 -6.273438 14.453125 -6.609375 C 15.171875 -6.941406 15.773438 -7.40625 16.265625 -8 C 16.753906 -8.601562 17.125 -9.3125 17.375 -10.125 C 17.625 -10.945312 17.75 -11.835938 17.75 -12.796875 Z M 17.75 -12.796875 "/></g></g></g><g fill="#f97316" fill-opacity="1"><g transform="translate(118.854829, 217.993827)"><g><path d="M 9.203125 -12.546875 L 9.203125 0 L 2.1875 0 L 2.1875 -25.515625 L 7.65625 -25.515625 L 17.890625 -12.546875 L 17.890625 -25.515625 L 24.90625 -25.515625 L 24.90625 0 L 19.328125 0 Z M 9.203125 -12.546875 "/></g></g></g><g fill="#f97316" fill-opacity="1"><g transform="translate(146.812324, 217.993827)"><g/></g></g><g fill="#f97316" fill-opacity="1"><g transform="translate(155.760222, 217.993827)"><g><path d="M 2.1875 0 L 2.1875 -25.515625 L 19.6875 -25.515625 L 19.6875 -19.40625 L 9.203125 -19.40625 L 9.203125 -15.171875 L 17.75 -15.171875 L 17.75 -9.484375 L 9.203125 -9.484375 L 9.203125 0 Z M 2.1875 0 "/></g></g></g><g fill="#f97316" fill-opacity="1"><g transform="translate(176.710402, 217.993827)"><g><path d="M 2.1875 0 L 2.1875 -25.515625 L 9.203125 -25.515625 L 9.203125 0 Z M 2.1875 0 "/></g></g></g><g fill="#f97316" fill-opacity="1"><g transform="translate(188.964323, 217.993827)"><g><path d="M 22.0625 -19.40625 L 14.734375 -19.40625 L 14.734375 0 L 7.734375 0 L 7.734375 -19.40625 L 0.359375 -19.40625 L 0.359375 -25.515625 L 22.0625 -25.515625 Z M 22.0625 -19.40625 "/></g></g></g><g fill="#f97316" fill-opacity="1"><g transform="translate(212.250269, 217.993827)"><g><path d="M 9.203125 -12.546875 L 9.203125 0 L 2.1875 0 L 2.1875 -25.515625 L 7.65625 -25.515625 L 17.890625 -12.546875 L 17.890625 -25.515625 L 24.90625 -25.515625 L 24.90625 0 L 19.328125 0 Z M 9.203125 -12.546875 "/></g></g></g><g fill="#f97316" fill-opacity="1"><g transform="translate(240.207769, 217.993827)"><g><path d="M 20.375 -6.109375 L 20.375 0 L 2.1875 0 L 2.1875 -25.515625 L 20.046875 -25.515625 L 20.046875 -19.40625 L 9.203125 -19.40625 L 9.203125 -15.8125 L 18.46875 -15.8125 L 18.46875 -10.140625 L 9.203125 -10.140625 L 9.203125 -6.109375 Z M 20.375 -6.109375 "/></g></g></g><g fill="#f97316" fill-opacity="1"><g transform="translate(262.52348, 217.993827)"><g><path d="M 17.640625 -17.171875 C 16.921875 -17.609375 16.179688 -17.992188 15.421875 -18.328125 C 14.773438 -18.617188 14.050781 -18.890625 13.25 -19.140625 C 12.445312 -19.390625 11.660156 -19.515625 10.890625 -19.515625 C 10.265625 -19.515625 9.765625 -19.414062 9.390625 -19.21875 C 9.023438 -19.03125 8.84375 -18.707031 8.84375 -18.25 C 8.84375 -17.914062 8.945312 -17.640625 9.15625 -17.421875 C 9.375 -17.210938 9.6875 -17.015625 10.09375 -16.828125 C 10.5 -16.648438 10.992188 -16.476562 11.578125 -16.3125 C 12.171875 -16.144531 12.835938 -15.941406 13.578125 -15.703125 C 14.753906 -15.347656 15.816406 -14.953125 16.765625 -14.515625 C 17.710938 -14.085938 18.519531 -13.578125 19.1875 -12.984375 C 19.863281 -12.398438 20.378906 -11.6875 20.734375 -10.84375 C 21.097656 -10.007812 21.28125 -8.992188 21.28125 -7.796875 C 21.28125 -6.265625 21 -4.976562 20.4375 -3.9375 C 19.875 -2.894531 19.128906 -2.0625 18.203125 -1.4375 C 17.273438 -0.8125 16.226562 -0.359375 15.0625 -0.078125 C 13.90625 0.191406 12.742188 0.328125 11.578125 0.328125 C 10.640625 0.328125 9.675781 0.253906 8.6875 0.109375 C 7.707031 -0.0351562 6.734375 -0.238281 5.765625 -0.5 C 4.796875 -0.769531 3.863281 -1.082031 2.96875 -1.4375 C 2.070312 -1.800781 1.238281 -2.207031 0.46875 -2.65625 L 3.484375 -8.8125 C 4.328125 -8.28125 5.203125 -7.8125 6.109375 -7.40625 C 6.878906 -7.039062 7.75 -6.710938 8.71875 -6.421875 C 9.6875 -6.140625 10.675781 -6 11.6875 -6 C 12.445312 -6 12.976562 -6.097656 13.28125 -6.296875 C 13.582031 -6.503906 13.734375 -6.773438 13.734375 -7.109375 C 13.734375 -7.472656 13.582031 -7.78125 13.28125 -8.03125 C 12.976562 -8.28125 12.5625 -8.5 12.03125 -8.6875 C 11.507812 -8.882812 10.90625 -9.078125 10.21875 -9.265625 C 9.539062 -9.460938 8.816406 -9.691406 8.046875 -9.953125 C 6.921875 -10.335938 5.953125 -10.75 5.140625 -11.1875 C 4.328125 -11.632812 3.65625 -12.140625 3.125 -12.703125 C 2.601562 -13.265625 2.210938 -13.90625 1.953125 -14.625 C 1.703125 -15.34375 1.578125 -16.171875 1.578125 -17.109375 C 1.578125 -18.523438 1.832031 -19.769531 2.34375 -20.84375 C 2.863281 -21.925781 3.566406 -22.828125 4.453125 -23.546875 C 5.335938 -24.265625 6.347656 -24.804688 7.484375 -25.171875 C 8.628906 -25.546875 9.835938 -25.734375 11.109375 -25.734375 C 12.035156 -25.734375 12.941406 -25.640625 13.828125 -25.453125 C 14.722656 -25.273438 15.582031 -25.046875 16.40625 -24.765625 C 17.226562 -24.492188 18 -24.195312 18.71875 -23.875 C 19.4375 -23.550781 20.085938 -23.25 20.671875 -22.96875 Z M 17.640625 -17.171875 "/></g></g></g><g fill="#f97316" fill-opacity="1"><g transform="translate(285.557883, 217.993827)"><g><path d="M 17.640625 -17.171875 C 16.921875 -17.609375 16.179688 -17.992188 15.421875 -18.328125 C 14.773438 -18.617188 14.050781 -18.890625 13.25 -19.140625 C 12.445312 -19.390625 11.660156 -19.515625 10.890625 -19.515625 C 10.265625 -19.515625 9.765625 -19.414062 9.390625 -19.21875 C 9.023438 -19.03125 8.84375 -18.707031 8.84375 -18.25 C 8.84375 -17.914062 8.945312 -17.640625 9.15625 -17.421875 C 9.375 -17.210938 9.6875 -17.015625 10.09375 -16.828125 C 10.5 -16.648438 10.992188 -16.476562 11.578125 -16.3125 C 12.171875 -16.144531 12.835938 -15.941406 13.578125 -15.703125 C 14.753906 -15.347656 15.816406 -14.953125 16.765625 -14.515625 C 17.710938 -14.085938 18.519531 -13.578125 19.1875 -12.984375 C 19.863281 -12.398438 20.378906 -11.6875 20.734375 -10.84375 C 21.097656 -10.007812 21.28125 -8.992188 21.28125 -7.796875 C 21.28125 -6.265625 21 -4.976562 20.4375 -3.9375 C 19.875 -2.894531 19.128906 -2.0625 18.203125 -1.4375 C 17.273438 -0.8125 16.226562 -0.359375 15.0625 -0.078125 C 13.90625 0.191406 12.742188 0.328125 11.578125 0.328125 C 10.640625 0.328125 9.675781 0.253906 8.6875 0.109375 C 7.707031 -0.0351562 6.734375 -0.238281 5.765625 -0.5 C 4.796875 -0.769531 3.863281 -1.082031 2.96875 -1.4375 C 2.070312 -1.800781 1.238281 -2.207031 0.46875 -2.65625 L 3.484375 -8.8125 C 4.328125 -8.28125 5.203125 -7.8125 6.109375 -7.40625 C 6.878906 -7.039062 7.75 -6.710938 8.71875 -6.421875 C 9.6875 -6.140625 10.675781 -6 11.6875 -6 C 12.445312 -6 12.976562 -6.097656 13.28125 -6.296875 C 13.582031 -6.503906 13.734375 -6.773438 13.734375 -7.109375 C 13.734375 -7.472656 13.582031 -7.78125 13.28125 -8.03125 C 12.976562 -8.28125 12.5625 -8.5 12.03125 -8.6875 C 11.507812 -8.882812 10.90625 -9.078125 10.21875 -9.265625 C 9.539062 -9.460938 8.816406 -9.691406 8.046875 -9.953125 C 6.921875 -10.335938 5.953125 -10.75 5.140625 -11.1875 C 4.328125 -11.632812 3.65625 -12.140625 3.125 -12.703125 C 2.601562 -13.265625 2.210938 -13.90625 1.953125 -14.625 C 1.703125 -15.34375 1.578125 -16.171875 1.578125 -17.109375 C 1.578125 -18.523438 1.832031 -19.769531 2.34375 -20.84375 C 2.863281 -21.925781 3.566406 -22.828125 4.453125 -23.546875 C 5.335938 -24.265625 6.347656 -24.804688 7.484375 -25.171875 C 8.628906 -25.546875 9.835938 -25.734375 11.109375 -25.734375 C 12.035156 -25.734375 12.941406 -25.640625 13.828125 -25.453125 C 14.722656 -25.273438 15.582031 -25.046875 16.40625 -24.765625 C 17.226562 -24.492188 18 -24.195312 18.71875 -23.875 C 19.4375 -23.550781 20.085938 -23.25 20.671875 -22.96875 Z M 17.640625 -17.171875 "/></g></g></g><g fill="#f97316" fill-opacity="1"><g transform="translate(77.610921, 195.545288)"><g><path d="M 0.8125 -9 C 0.8125 -9.894531 0.875 -10.671875 1 -11.328125 C 1.125 -11.992188 1.34375 -12.582031 1.65625 -13.09375 C 1.976562 -13.613281 2.410156 -14.070312 2.953125 -14.46875 C 3.503906 -14.863281 4.195312 -15.238281 5.03125 -15.59375 C 5.53125 -15.8125 6.019531 -16.019531 6.5 -16.21875 C 6.988281 -16.414062 7.421875 -16.625 7.796875 -16.84375 C 8.171875 -17.0625 8.472656 -17.296875 8.703125 -17.546875 C 8.941406 -17.796875 9.0625 -18.101562 9.0625 -18.46875 C 9.0625 -18.945312 8.851562 -19.265625 8.4375 -19.421875 C 8.03125 -19.578125 7.484375 -19.65625 6.796875 -19.65625 C 5.992188 -19.65625 5.269531 -19.515625 4.625 -19.234375 C 3.976562 -18.953125 3.441406 -18.632812 3.015625 -18.28125 L 0.875 -20.796875 C 1.34375 -21.398438 2.128906 -21.914062 3.234375 -22.34375 C 4.347656 -22.78125 5.703125 -23 7.296875 -23 C 9.117188 -23 10.515625 -22.613281 11.484375 -21.84375 C 12.460938 -21.082031 12.953125 -19.945312 12.953125 -18.4375 C 12.953125 -17.71875 12.820312 -17.109375 12.5625 -16.609375 C 12.300781 -16.109375 11.976562 -15.675781 11.59375 -15.3125 C 11.207031 -14.957031 10.78125 -14.675781 10.3125 -14.46875 C 9.851562 -14.257812 9.425781 -14.101562 9.03125 -14 C 8.269531 -13.789062 7.660156 -13.566406 7.203125 -13.328125 C 6.742188 -13.097656 6.515625 -12.773438 6.515625 -12.359375 L 12.390625 -12.359375 L 12.390625 -9 Z M 0.8125 -9 "/></g></g></g></svg>